<?xml version="1.0" encoding="utf-8"?>
<!-- Generator: Adobe Illustrator 19.1.0, SVG Export Plug-In . SVG Version: 6.00 Build 0)  -->
<svg version="1.1" id="Layer_1" xmlns="http://www.w3.org/2000/svg" xmlns:xlink="http://www.w3.org/1999/xlink" x="0px" y="0px"
	 viewBox="-12 23 73.5 56" style="enable-background:new -12 23 73.5 56;" xml:space="preserve">
<style type="text/css">
	.st0{fill:#797D82;}
</style>
<path class="st0" d="M61.5,51c0,2.8-2.2,5-5,5H5.1l14.5,14.5c2,2,2,5.1,0,7.1c-1,1-2.3,1.5-3.5,1.5s-2.6-0.5-3.5-1.5l-23-23
	c-2-2-2-5.1,0-7.1l23-23c2-1.9,5.1-1.9,7.1,0c2,2,2,5.1,0,7.1L5.1,46h51.4C59.3,46,61.5,48.2,61.5,51z"/>
</svg>
