<?xml version="1.0" encoding="utf-8"?>
<!-- Generator: Adobe Illustrator 19.1.0, SVG Export Plug-In . SVG Version: 6.00 Build 0)  -->
<svg version="1.1" id="Layer_1" xmlns="http://www.w3.org/2000/svg" xmlns:xlink="http://www.w3.org/1999/xlink" x="0px" y="0px"
	 viewBox="-361.2 293.4 56 54.9" style="enable-background:new -361.2 293.4 56 54.9;" xml:space="preserve">
<style type="text/css">
	.st0{fill:#FFFFFF;}
</style>
<path class="st0" d="M-333.1,348.3c-2.8,0-5-2.5-5-5.3v-32.6l-14.5,14.5c-2,2-5.1,2-7.1,0c-1-1-1.5-2.3-1.5-3.5s0.5-2.6,1.5-3.5
	l23-23c2-2,5.1-2,7.1,0l23,23c1.9,2,1.9,5.1,0,7.1c-2,2-5.1,2-7.1,0l-14.4-14.6v32.1C-328.1,345.3-330.3,348.3-333.1,348.3z"/>
</svg>
