<?xml version="1.0" encoding="utf-8"?>
<!-- Generator: Adobe Illustrator 19.2.1, SVG Export Plug-In . SVG Version: 6.00 Build 0)  -->
<svg version="1.1" id="Layer_1" xmlns="http://www.w3.org/2000/svg" xmlns:xlink="http://www.w3.org/1999/xlink" x="0px" y="0px"
	 viewBox="0 0 433.6 433.6" style="enable-background:new 0 0 433.6 433.6;" xml:space="preserve">
<style type="text/css">
	.st0{fill:#8C6F4C;}
	.st1{fill:#FFFFFF;}
</style>
<circle id="Layer_1_1_" class="st0" cx="216.8" cy="216.8" r="216.8"/>
<g id="Layer_2">
	
		<image style="overflow:visible;opacity:0.5;" width="252" height="274" xlink:href="DB6026202A5C785B.png"  transform="matrix(1 0 0 1 101 88.6)">
	</image>
	<g>
		<g>
			<path class="st1" d="M118.5,107.1h39v208.5h-39V107.1z M281.2,107.1v53c-95.4,0-88.3,87-88.3,87c0,71.2,52.6,77.4,52.6,77.4
				c44.1,9,69.6-15.7,69.6-15.7V107.1C315.1,107.1,281.2,107.1,281.2,107.1z M227.3,238c0.6-11.3,3.4-22.7,10.1-31.1
				c6.8-8.6,16.9-13.5,27.5-15.6c5.3-1.1,10.9-1.7,16.3-1.2v100c-13.4,2.6-28.8,2.6-39.7-6.6c-7.6-6.4-11.4-16-13-25.5
				C227.5,251.8,227,244.9,227.3,238L227.3,238z"/>
		</g>
	</g>
</g>
</svg>
