<svg xmlns="http://www.w3.org/2000/svg" viewBox="0 0 433.6 433.6" enable-background="new 0 0 433.6 433.6"><style type="text/css">.st0{fill:#8C6F4C;} .st1{fill:#FFFFFF;}</style><circle id="Layer_1_1_" class="st0" cx="216.8" cy="216.8" r="216.8"/><path class="st1" d="M118.5 107.1h39v208.5h-39v-208.5zm162.7 0v53c-95.4 0-88.3 87-88.3 87 0 71.2 52.6 77.4 52.6 77.4 44.1 9 69.6-15.7 69.6-15.7v-201.7h-33.9zm-53.9 130.9c.6-11.3 3.4-22.7 10.1-31.1 6.8-8.6 16.9-13.5 27.5-15.6 5.3-1.1 10.9-1.7 16.3-1.2v100c-13.4 2.6-28.8 2.6-39.7-6.6-7.6-6.4-11.4-16-13-25.5-1-6.2-1.5-13.1-1.2-20z" id="Layer_2"/></svg>