<svg xmlns="http://www.w3.org/2000/svg" viewBox="0 0 433.6 433.6" enable-background="new 0 0 433.6 433.6"><style type="text/css">.st0{fill:#8C6F4C;} .st1{fill:#FFFFFF;}</style><circle id="Layer_1_1_" class="st0" cx="216.8" cy="216.8" r="216.8"/><path class="st1" d="M294 204.7v-1.2c-.2.7 0 1.2 0 1.2zm-61.3 87.3l-6 30.6h-92.7l.3-.6h-17.6v-209.3h34.7v179.3zm98.6-126v31.4c-25.5-.4-33.7 2.5-36.3 4.7-.6.5-.9 1-1 1.4-.2.7 0 1.2 0 1.2v117.9h-34.7v-142.6c29.4-16.9 72-14 72-14zm-36.3 36.1l-1 2.6s-.2-.5 0-1.2c.1-.4.4-.9 1-1.4z"/></svg>