<svg xmlns="http://www.w3.org/2000/svg" viewBox="0 0 383.7 511.1" enable-background="new 0 0 383.7 511.1"><style type="text/css">.st0{fill:#559CB4;}</style><path class="st0" d="M383.2 181.3s-4.7-83.3-56.7-125.3c0 0-54.2-55.8-134.5-56h-.4c-80.2.2-134.4 56-134.4 56-52 42-56.7 125.3-56.7 125.3-7.3 94 65.3 190 65.3 190 27.4 46 102.7 128.7 102.7 128.7 9.5 10.6 20.5 11.2 23.3 11.1 2.8 0 13.9-.6 23.3-11.1 0 0 75.3-82.7 102.7-128.7 0 0 72.7-96 65.4-190zm-191.4 117.2c-59.9 0-108.5-48.6-108.5-108.5s48.6-108.6 108.5-108.6 108.6 48.6 108.6 108.6-48.6 108.5-108.6 108.5z" id="Layer_2"/></svg>