<?xml version="1.0" encoding="utf-8"?>
<!-- Generator: Adobe Illustrator 19.2.1, SVG Export Plug-In . SVG Version: 6.00 Build 0)  -->
<svg version="1.1" id="Layer_1" xmlns="http://www.w3.org/2000/svg" xmlns:xlink="http://www.w3.org/1999/xlink" x="0px" y="0px"
	 viewBox="0 0 433.6 433.6" style="enable-background:new 0 0 433.6 433.6;" xml:space="preserve">
<style type="text/css">
	.st0{fill:#8C6F4C;}
	.st1{fill:#FFFFFF;}
</style>
<circle id="Layer_1_1_" class="st0" cx="216.8" cy="216.8" r="216.8"/>
<g id="Layer_2">
	
		<image style="overflow:visible;opacity:0.5;" width="315" height="265" xlink:href="DBA932B18274E53F.png"  transform="matrix(1 0 0 1 74 94.6)">
	</image>
	<g>
		<g>
			<path class="st1" d="M219,146c-10.2-20.1-30.9-33-53.5-33H91v208.5h42V254c0,2,34.6-2.1,37.5-2.7c13.7-2.8,27.2-8.1,37.3-18.2
				c9.7-9.8,15.2-23.3,17.6-36.9C228.4,179.3,226.8,161.3,219,146L219,146z M170.6,213.7c-6.7,4.1-15.2,6.3-23.1,6.3H132v-74.5h26
				c11.4,0,20.2,10.2,23.4,20.4C186.6,182,186.5,203.9,170.6,213.7L170.6,213.7z M343.1,168.7c0.5,0.9,0.5,1.9,0.5,2.9l-0.1,33
				c-12.8-8.6-28.4-13-43.8-12.3c-5.7,0.2-12.5,2-14.5,7.3c-2,5.5,2.2,11.3,6.9,14.7c6.4,4.6,14,7,21.2,10.2c16.3,7,32,19,36.5,36.2
				c2.3,8.7,1.5,18.1-1.1,26.7c-2.7,9.1-7.3,17.9-14.6,24c-10.5,9-25.2,11.6-39,11.6c-13.6,0-27.7-2.4-39.7-9
				c-8-4.5-9.9-6.5-9.9-15.5V273c9.9,3.8,19.2,9.1,29.3,12.2s21.7,3.8,30.9-1.4c2.1-1.2,4.1-2.8,4.9-5.1c1.6-4.5-2.4-9.1-6.3-11.8
				c-5.3-3.7-11.3-6.3-17.2-9c-16.9-7.8-34.4-18.2-41.1-35.5c-5.7-14.7-2-32.1,8-44.4c9.9-12.2,25.4-19.3,41-20.7
				c15.7-1.4,31.5,2.6,45.6,9.5c0.9,0.4,1.7,0.9,2.3,1.7L343.1,168.7L343.1,168.7z"/>
		</g>
	</g>
</g>
</svg>
