<svg xmlns="http://www.w3.org/2000/svg" viewBox="0 0 433.6 433.6" enable-background="new 0 0 433.6 433.6"><style type="text/css">.st0{fill:#8C6F4C;} .st1{fill:#FFFFFF;}</style><circle id="Layer_1_1_" class="st0" cx="216.8" cy="216.8" r="216.8"/><path class="st1" d="M219 146c-10.2-20.1-30.9-33-53.5-33h-74.5v208.5h42v-67.5c0 2 34.6-2.1 37.5-2.7 13.7-2.8 27.2-8.1 37.3-18.2 9.7-9.8 15.2-23.3 17.6-36.9 3-16.9 1.4-34.9-6.4-50.2zm-48.4 67.7c-6.7 4.1-15.2 6.3-23.1 6.3h-15.5v-74.5h26c11.4 0 20.2 10.2 23.4 20.4 5.2 16.1 5.1 38-10.8 47.8zm172.5-45c.5.9.5 1.9.5 2.9l-.1 33c-12.8-8.6-28.4-13-43.8-12.3-5.7.2-12.5 2-14.5 7.3-2 5.5 2.2 11.3 6.9 14.7 6.4 4.6 14 7 21.2 10.2 16.3 7 32 19 36.5 36.2 2.3 8.7 1.5 18.1-1.1 26.7-2.7 9.1-7.3 17.9-14.6 24-10.5 9-25.2 11.6-39 11.6-13.6 0-27.7-2.4-39.7-9-8-4.5-9.9-6.5-9.9-15.5v-25.5c9.9 3.8 19.2 9.1 29.3 12.2s21.7 3.8 30.9-1.4c2.1-1.2 4.1-2.8 4.9-5.1 1.6-4.5-2.4-9.1-6.3-11.8-5.3-3.7-11.3-6.3-17.2-9-16.9-7.8-34.4-18.2-41.1-35.5-5.7-14.7-2-32.1 8-44.4 9.9-12.2 25.4-19.3 41-20.7 15.7-1.4 31.5 2.6 45.6 9.5.9.4 1.7.9 2.3 1.7l.2.2z" id="Layer_2"/></svg>